nColumns=28
nRows=22
DataType=double
version=3
OpenSimVersion=4.5
endheader
time	ground_force_1_vx	ground_force_1_vy	ground_force_1_vz	ground_force_1_px	ground_force_1_py	ground_force_1_pz	ground_moment_1_mx	ground_moment_1_my	ground_moment_1_mz	ground_force_2_vx	ground_force_2_vy	ground_force_2_vz	ground_force_2_px	ground_force_2_py	ground_force_2_pz	ground_moment_2_mx	ground_moment_2_my	ground_moment_2_mz	ground_force_3_vx	ground_force_3_vy	ground_force_3_vz	ground_force_3_px	ground_force_3_py	ground_force_3_pz	ground_moment_3_mx	ground_moment_3_my	ground_moment_3_mz
3.993	161.5167409181595	593.4233665466309	57.90798738598827	0.3722807882931204	2.11612918982624e-17	-0.3455901230133572	0	-1.619333062710881	-9.915555260011802e-17	-15.6404972076416	280.3082168102264	22.65964634716513	0.8093832230282801	8.853189541820596e-18	-0.1445835574466782	0	-0.4081647504895359	-2.499288276058941e-17	0.07629627361893654	-0.7629534229636191	-1.602198462933302	0.9620025634296248	1.469571674268417e-17	-0.2399992675915358	0	0.9826771728783112	6.017162271802971e-17
3.994	160.6012135744095	586.0990285873413	56.07690289616588	0.3734964853439044	2.122806140000352e-17	-0.346680551727785	0	-1.595903964156245	-9.772093407252588e-17	-18.08194071054459	283.6652100086212	20.82856371998789	0.8082081716916757	8.735242997482189e-18	-0.1426573442002054	0	-0.3694181001895645	-2.262033469721232e-17	-0.2288841642439365	-1.373314298689365	-0.5340669304132463	1.202001017235358	2.177146174027813e-17	-0.3555549527494176	0	0.3306119168096272	-3.659927757676396e-17
3.995	159.8382592201233	582.4368596076965	56.22949451208118	0.373172645839723	2.109844771991504e-17	-0.3445637996948115	0	-1.915815537360952	-1.173098682792928e-16	-20.37079259753227	288.2429361343384	18.0819407105446	0.8087289577523504	8.791006467712641e-18	-0.1435680307797037	0	-0.404433259412561	-2.47643948304162e-17	0.8392473682761192	-1.068133860826492	0.5340646021068095	1.287715406748627	2.099389936586976e-17	-0.3428563955009155	0	-0.01743884415253939	-2.948953066401586e-17
3.996	159.2278927564621	576.028048992157	54.39841002225879	0.3738278168781994	2.110609840745432e-17	-0.3446887449042321	0	-1.716287296390332	-1.050922871970842e-16	-21.43892459571362	290.3791964054108	17.47157797217371	0.8112995286400414	8.764944647859336e-18	-0.1431424089616995	0	-0.3253549889484557	-1.992224729011744e-17	1.144427806138992	0.4577683284878732	-1.449608244001865	1.401997965515487	0	0	0	-0.381473063784357	-2.335848832622235e-17
3.997	157.2442203760147	570.5348253250122	52.719920873642	0.3742177015302781	2.105383692176285e-17	-0.343835250072451	0	-1.966211320852162	-1.203957200264445e-16	-23.422596976161	293.7361598014832	17.77675934135916	0.8085844066902391	8.804733233762357e-18	-0.1437922058816069	0	-0.3949832008674973	-2.418574563296783e-17	0.2288864925503731	-1.068133860826492	-0.9918375872075559	1.116287208998169	6.997966455289919e-18	-0.1142854651669718	0	0.4773878596964417	2.923157571645265e-17
3.998	156.3286781311035	564.7364258766174	52.5673292577267	0.3736827848465995	2.111117632737935e-17	-0.3447716736299442	0	-1.899397882580357	-1.163045768604647e-16	-26.62699297070503	299.8397648334503	17.01380871236326	0.8101603002220565	8.750148038061179e-18	-0.14290076198547	0	-0.9178013962598008	-3.694177934200841e-15	-0.3814743831753731	-0.4577729851007461	-0.5340669304132462	0.6020061033914512	1.632854093864466e-17	-0.2666653103574553	3.552713678800501e-18	0.6154452502366219	3.768515278763604e-17
3.999	155.2605479955673	558.6327910423279	50.88883638381962	0.3754711835500837	2.106753766726222e-17	-0.3440590002265185	0	-1.785355423188212	-1.093214902173906e-16	-28.61066535115242	299.8397648334503	13.96200433373453	0.8101603002220565	8.73768332484269e-18	-0.1426971977704299	0	-0.1094925225812788	-3.6446832904572e-15	-0.2288841642439365	-0.4577729851007461	-0.5340669304132462	1.002004068927634	-2.449281140796699e-17	0.3999979655361829	0	0.4272495086104929	2.616148715785598e-17
4	153.7346541881561	553.7499189376831	49.36293512582782	0.3764673400943039	2.106432957625435e-17	-0.3440066081244022	0	-1.85033293317875	-1.133002151987145e-16	-31.3572883605957	304.4174909591675	12.43610121309759	0.8109248073043996	8.643121449910216e-18	-0.1411528851572207	0	-0.3048825908707934	-1.866867445128345e-17	0.2288864925503731	-0.1525925472378731	0.8392450399696827	-2.397935915041655	7.347768678542533e-17	-1.199981690011902	0	-3.15856258470146	-1.934061779630616e-16
4.001	153.1242877244949	546.4255809783936	47.83703386783603	0.376151911644396	2.10252124807412e-17	-0.343367777474775	0	-2.213597364598038	-1.355437463578002e-16	-32.88318961858749	308.0796599388123	11.97833102196457	0.8111040146504386	8.710217103185502e-18	-0.1422486403304184	0	-0.6197328774646662	-3.794769423567412e-17	0.3814767114818096	0.152587890625	-0.2288864925503731	2.402009155273438	7.347992914647225e-17	-1.200018310546875	0	0.01526367859128186	9.346307565013656e-19
4.002	152.3613333702087	538.490891456604	46.46372050046924	0.3760838764993008	2.107128192614586e-17	-0.3441201486145477	0	-2.087203462533562	-1.278043519780499e-16	-35.93499585986137	309.6055388450623	10.75760927051308	0.8115470635322937	8.606931124162214e-18	-0.14056185228516	0	-0.6345845901524977	-3.885709935592456e-17	0.9918375872075558	-1.068133860826492	-0.5340669304132463	1.202001307873398	2.449288259351472e-17	-0.3999991280844015	0	0.5645824795863643	3.457070632400585e-17
4.003	150.3776609897614	534.8287224769592	45.70076987147335	0.3762624796095192	2.101291245907843e-17	-0.343166902876951	0	-2.474770692592628	-1.51536000365362e-16	-38.52903097867966	314.4884407520294	8.773935958743115	0.813227070107968	8.687208299267601e-18	-0.1418728780464044	0	-0.2929497612364203	-1.793799937045817e-17	0.2288864925503731	1.983670517802238	-0.6866571493446826	1.755846099673701	2.072481631101483e-17	-0.3384619357261908	0	-0.1197249887603569	-7.331041213166195e-18
4.004	149.9198973178864	530.2510261535645	44.32745650410656	0.3765755323434803	2.099696559693245e-17	-0.3429064708543125	0	-2.395544019591584	-1.466847657904709e-16	-39.90234062075615	317.2350525856018	6.790263578295727	0.8128326078979453	8.635556572548804e-18	-0.1410293413343539	0	-0.4658005573753119	-2.852205808153644e-17	1.144427806138992	1.373309642076492	0.3814743831753732	1.735333220306799	2.721441945358004e-18	-0.04444451979546719	0	-0.1576773184176232	-9.654951164914014e-18
4.005	147.7836221456528	520.4852223396301	42.64896363019946	0.377660512536627	2.100317785468761e-17	-0.3430079247226359	0	-2.264547569885617	-1.386635466488669e-16	-43.41191798448563	320.5920457839966	5.569541826844235	0.8143269838371843	8.685024832035417e-18	-0.1418372193204158	0	-0.6357299553568769	-3.676906039839207e-15	-0.3814743831753731	-1.373314298689365	-0.2288864925503732	1.202001017235358	1.63285963052086e-17	-0.2666662145620632	1.4210854715202e-17	0.06612244544872865	-5.279458680227897e-17
4.006	147.1732705831528	512.8557085990906	40.81788286566737	0.3786373159624657	2.095854964490053e-17	-0.3422790907466983	0	-2.240990142330804	-1.372210702363095e-16	-45.09040713310242	320.5920457839966	2.975508105009814	0.8143269838371843	8.56844738627598e-18	-0.1399333651505343	0	-0.5020881874711727	-3.668722841675526e-15	-0.5340646021068096	1.678490079939365	-0.3814767114818095	1.856545530207822	1.113316816280071e-17	-0.1818184340260727	0	-0.1026525485429603	-6.285655749872731e-18
4.007	146.5629041194916	507.3624849319458	40.97047448158267	0.3812932338909297	2.094238132616577e-17	-0.3420150420635023	0	-2.062610952889485	-1.26298495067119e-16	-48.1422133743763	325.7801234722137	2.365147229284068	0.8131779828634423	8.558187518608054e-18	-0.1397658087959173	0	-0.6725193918048767	-4.117993602691835e-17	0.2288864925503731	0.1525878906250001	-1.449608244001865	6.002064086914062	-2.449330971549075e-17	0.400006103515625	0	-6.775106304914402	-4.148556125098237e-16
4.008	145.9525525569916	503.395140171051	38.83421048521998	0.3777508270905134	2.09069738233841e-17	-0.3414367936606758	0	-1.949815552002496	-1.193917687343793e-16	-50.73624849319458	330.9681713581085	-0.8392473682760989	0.8142780043382307	8.536956874910583e-18	-0.1394190860720715	0	-0.1266310357022717	-7.75391462727506e-18	1.297018025070429	1.068129204213619	-1.144427806138992	1.887714472554157	1.399599392720695e-17	-0.2285719268110856	0	-0.4272529456219225	-2.616169761410828e-17
4.009	143.205925822258	493.3241605758667	36.8505381047726	0.3785957311487342	2.090195252484492e-17	-0.3413547896323686	0	-2.610461429341511	-1.598446616870353e-16	-53.17769199609756	336.1562490463257	-0.381476711481789	0.8161611409941477	8.516381885771656e-18	-0.1390830709997543	0	-0.825261990892403	-5.053272278021767e-17	1.144427806138992	-0.1525925472378732	1.297015696763992	-0.597963380023803	4.898512452361689e-17	-0.7999877933412677	0	-2.105708700241831	-1.289374709843946e-16
4.01	142.5955593585968	488.4412884712219	35.7824042439461	0.3784442385521835	2.082014331570055e-17	-0.3400187438565363	0	-2.564631368020579	-1.57038379791965e-16	-56.53467401862144	339.5132422447205	-2.059969119727591	0.8172696645960639	8.5862876752578e-18	-0.1402247191800266	0	-0.4536356753508781	-2.777717388987504e-17	0.3814767114818096	-0.152592547237873	-0.6866571493446827	-0.597963380023803	1.469553735708507e-16	-2.399963380023803	0	2.441409044479299	1.494931885865486e-16
4.011	140.7644748687744	481.4221262931824	34.25650298595431	0.3793977793275979	2.085198934341029e-17	-0.3405388289575127	0	-2.605957130811777	-1.595688529481932e-16	-58.36575850844383	345.6168472766876	-4.043641965836265	0.8171589395236363	8.54279006525763e-18	-0.1395143492998218	0	-0.6855042717542188	-4.197503061028207e-17	0.07629627361893654	0.1525878906250001	-1.297018025070429	4.20203662109375	4.89866194309815e-17	-0.80001220703125	0	-3.570660483831034	-2.186398966182808e-16
4.012	141.0696655511856	473.4874367713928	33.18837285041812	0.3811150512204422	2.084622754719964e-17	-0.3404447316844921	0	-2.421044022362094	-1.482461906290286e-16	-60.34943088889122	349.5841920375824	-6.179905030876377	0.8199436892220603	8.509985733495118e-18	-0.1389786139059866	0	-0.6001773474622368	-3.675026337451886e-17	-0.2288841642439365	0.4577683284878731	-0.228886492550373	3.802010172422563	3.265741407892583e-17	-0.53333604597935	0	-0.7171796169368839	-4.3914586114774e-17
4.013	138.933390378952	465.2475714683533	32.12023898959163	0.3795998659416962	2.083787340734544e-17	-0.3403082982269431	7.275957614183426e-15	-2.280235910512929	-1.396241804555254e-16	-62.33310326933861	357.2137057781219	-7.553217001259305	0.8185993168922376	8.527015385593668e-18	-0.1392567292305097	0	-0.2834429107290562	-3.655334679759981e-15	0.07629627361893654	-1.373314298689365	0.686654821038246	1.268667570875873	2.44928944578129e-17	-0.3999993218430948	0	-0.2594026478242467	-1.588383111741559e-17
4.014	136.7971301078796	457.9232335090637	31.66246786713603	0.3810729759301348	2.086102809785454e-17	-0.3406864430197963	7.275957614183426e-15	-2.106044043385078	-1.289580048297443e-16	-66.14785641431808	360.5706989765167	-8.773938752710798	0.8186047412355579	8.457992514907712e-18	-0.1381295002084927	0	-0.425942618835501	-3.66406027033058e-15	0.9918375872075558	-0.7629534229636191	-1.754788681864738	0.8420029296338568	1.959428899024556e-17	-0.3199990234553811	0	1.025400720550806	5.944266652488677e-18
